<?xml version="1.0" encoding="UTF-8"?>
<svg id="Ebene_2" data-name="Ebene 2" xmlns="http://www.w3.org/2000/svg" viewBox="0 0 175.14 46.95">
  <defs>
    <style>
      .cls-1 {
        fill: #fff;
      }
    </style>
  </defs>
  <g id="Ebene_1-2" data-name="Ebene 1">
    <g id="Ebene_4" data-name="Ebene 4">
      <path class="cls-1" d="M38.64,35.03l-7.9-28.8c-.7-2.56-3.35-4.07-5.91-3.37L3.54,8.7C.98,9.4-.53,12.05.17,14.61l7.9,28.8c.7,2.56,3.35,4.07,5.91,3.37l21.29-5.84c2.56-.7,4.07-3.35,3.37-5.91ZM29.24,24.89l-1.61.44c-.11.03-.18.14-.15.26.15.52.56,1.66.28,1.74l-1.54.42c-.23.06-.37.3-.3.53l.26.93c.06.23-.07.47-.3.53l-1.4.38c-.11.03-.18.15-.15.26l.41,1.48c.03.11-.04.23-.15.26l-1.4.38c-.23.06-.37.3-.3.53l.26.93c.06.23-.07.47-.3.53l-1.43.39c-.23.06-.47-.07-.53-.3l-.26-.93c-.06-.23-.3-.37-.53-.3l-1.4.38c-.11.03-.23-.04-.26-.15l-.41-1.48c-.03-.11-.15-.18-.26-.15l-1.4.38c-.23.06-.47-.07-.53-.3l-.26-.93c-.06-.23-.3-.37-.53-.3l-1.54.42c-.28.08-.51-1.11-.65-1.64-.03-.11-.15-.18-.26-.14l-1.61.44c-.11.03-.23-.04-.26-.15l-.41-1.48c-.03-.11-.15-.18-.26-.15l-1.61.44c-.11.03-.23-.04-.26-.15l-1.41-5.14c-.03-.11.04-.23.15-.26l1.61-.44c.11-.03.18-.15.15-.26l-.41-1.48c-.03-.11.04-.23.15-.26l1.4-.38c.23-.06.37-.3.3-.53l-.26-.93c-.06-.23.07-.47.3-.53l3.45-.95c.23-.06.47.07.53.3l.26.93c.06.23.3.37.53.3l1.4-.38c.11-.03.23.04.26.15l.41,1.48c.03.11.15.18.26.15l1.61-.44c.11-.03.18-.15.15-.26l-.41-1.48c-.03-.11.04-.23.15-.26l1.4-.38c.23-.06.37-.3.3-.53l-.26-.93c-.06-.23.07-.47.3-.53l3.45-.95c.23-.06.47.07.53.3l.26.93c.06.23.3.37.53.3l1.4-.38c.11-.03.23.04.26.15l.41,1.48c.03.11.15.18.26.15l1.61-.44c.11-.03.23.04.26.15l1.41,5.14c.03.11-.04.23-.15.26l-1.61.44c-.11.03-.18.15-.15.26l.41,1.48c.03.11-.04.23-.15.26Z"/>
    </g>
    <g id="Ebene_3" data-name="Ebene 3">
      <path class="cls-1" d="M25.19,1.18c.47-.13.96-.2,1.46-.2h0c2.48,0,4.66,1.66,5.32,4.05l7.39,26.94V4.81c0-2.66-2.15-4.81-4.81-4.81H12.46c-2.66,0-4.81,2.15-4.81,4.81v1.18L25.19,1.18Z"/>
    </g>
    <g id="Ebene_2-2" data-name="Ebene 2">
      <g>
        <path class="cls-1" d="M54.58,13.83h4.06v18.41h-4.06V13.83Z"/>
        <path class="cls-1" d="M61.83,19.6h3.74v1.72h.05c.12-.24.29-.49.52-.73.23-.24.49-.46.81-.65s.67-.35,1.07-.47c.4-.12.83-.18,1.3-.18.99,0,1.78.15,2.39.46.61.3,1.08.72,1.42,1.26.34.54.57,1.17.69,1.9s.18,1.52.18,2.37v6.97h-3.9v-6.19c0-.36-.01-.74-.04-1.13-.03-.39-.1-.75-.23-1.08-.13-.33-.33-.6-.6-.81-.27-.21-.65-.31-1.16-.31s-.91.09-1.22.27c-.31.18-.55.42-.71.73-.17.3-.27.65-.33,1.03-.05.38-.08.78-.08,1.2v6.29h-3.9v-12.64Z"/>
        <path class="cls-1" d="M90.02,32.24h-3.59v-1.66h-.05c-.16.23-.36.46-.61.69-.25.23-.55.45-.88.64s-.71.35-1.12.47-.83.18-1.26.18c-.94,0-1.79-.16-2.55-.48-.76-.32-1.42-.77-1.96-1.35-.55-.58-.97-1.27-1.26-2.07-.29-.8-.44-1.67-.44-2.63,0-.88.13-1.73.4-2.54.27-.81.65-1.52,1.14-2.14s1.1-1.12,1.81-1.5c.71-.37,1.52-.56,2.42-.56.81,0,1.57.13,2.27.38.7.25,1.28.68,1.73,1.29h.05v-8.37h3.9v19.66ZM86.43,25.92c0-.95-.27-1.72-.82-2.31s-1.31-.88-2.3-.88-1.76.29-2.3.88-.82,1.36-.82,2.31.27,1.73.82,2.31c.55.59,1.31.88,2.3.88s1.75-.29,2.3-.88c.55-.59.82-1.36.82-2.31Z"/>
        <path class="cls-1" d="M92.88,15.62c0-.62.22-1.16.66-1.6.44-.44.98-.66,1.6-.66s1.16.22,1.6.66c.44.44.66.97.66,1.6s-.22,1.16-.66,1.6c-.44.44-.98.66-1.6.66s-1.16-.22-1.6-.66c-.44-.44-.66-.98-.66-1.6ZM93.19,19.6h3.9v12.64h-3.9v-12.64Z"/>
        <path class="cls-1" d="M111.86,30.05c-.62.8-1.41,1.41-2.37,1.85-.95.43-1.94.65-2.96.65s-1.88-.16-2.74-.47c-.86-.31-1.6-.76-2.24-1.34-.63-.58-1.13-1.28-1.49-2.09-.36-.81-.55-1.72-.55-2.73s.18-1.92.55-2.73c.36-.81.86-1.51,1.49-2.09.63-.58,1.38-1.03,2.24-1.34.86-.31,1.77-.47,2.74-.47.9,0,1.72.16,2.46.47.74.31,1.36.76,1.87,1.34.51.58.91,1.28,1.18,2.09.28.81.42,1.72.42,2.73v1.22h-9.05c.16.75.49,1.34,1.01,1.78.52.44,1.16.66,1.92.66.64,0,1.18-.14,1.62-.43.44-.29.83-.65,1.16-1.1l2.73,2ZM108.56,24.49c.02-.66-.2-1.22-.65-1.69-.45-.47-1.03-.7-1.74-.7-.43,0-.81.07-1.14.21-.33.14-.61.32-.85.53-.23.22-.42.47-.55.75-.13.29-.2.58-.22.9h5.15Z"/>
        <path class="cls-1" d="M115.32,13.83h6.08c1.47,0,2.87.17,4.2.49,1.33.33,2.48.86,3.47,1.6.99.74,1.77,1.7,2.35,2.87.58,1.18.87,2.61.87,4.29,0,1.49-.28,2.8-.85,3.94-.56,1.14-1.32,2.09-2.27,2.86-.95.77-2.05,1.36-3.3,1.75-1.25.4-2.56.6-3.93.6h-6.63V13.83ZM119.37,28.49h2.11c.94,0,1.81-.09,2.61-.29.81-.19,1.5-.51,2.09-.95.59-.44,1.05-1.02,1.39-1.74.34-.72.51-1.6.51-2.64,0-.9-.17-1.69-.51-2.35-.34-.67-.79-1.22-1.36-1.65-.57-.43-1.24-.76-2.02-.97-.77-.22-1.58-.33-2.43-.33h-2.39v10.92Z"/>
        <path class="cls-1" d="M146.52,30.05c-.62.8-1.41,1.41-2.37,1.85-.95.43-1.94.65-2.96.65s-1.88-.16-2.74-.47c-.86-.31-1.6-.76-2.24-1.34-.63-.58-1.13-1.28-1.49-2.09-.36-.81-.55-1.72-.55-2.73s.18-1.92.55-2.73c.36-.81.86-1.51,1.49-2.09.63-.58,1.38-1.03,2.24-1.34.86-.31,1.77-.47,2.74-.47.9,0,1.72.16,2.46.47.74.31,1.36.76,1.87,1.34.51.58.91,1.28,1.18,2.09.28.81.42,1.72.42,2.73v1.22h-9.05c.16.75.49,1.34,1.01,1.78.52.44,1.16.66,1.92.66.64,0,1.18-.14,1.62-.43.44-.29.83-.65,1.16-1.1l2.73,2ZM143.21,24.49c.02-.66-.2-1.22-.65-1.69-.45-.47-1.03-.7-1.74-.7-.43,0-.81.07-1.14.21-.33.14-.61.32-.85.53-.23.22-.42.47-.55.75-.13.29-.2.58-.22.9h5.15Z"/>
        <path class="cls-1" d="M158.03,23.68c-.19-.28-.46-.51-.81-.69-.35-.18-.72-.27-1.12-.27-.99,0-1.76.29-2.3.88s-.82,1.36-.82,2.31.27,1.73.82,2.31c.55.59,1.31.88,2.3.88.43,0,.81-.09,1.12-.29.31-.19.58-.42.81-.68l2.57,2.7c-.61.62-1.32,1.06-2.14,1.31-.82.25-1.61.38-2.35.38-.97,0-1.89-.16-2.74-.47-.86-.31-1.6-.76-2.24-1.34-.63-.58-1.13-1.28-1.49-2.09-.36-.81-.55-1.72-.55-2.73s.18-1.92.55-2.73c.36-.81.86-1.51,1.49-2.09.63-.58,1.38-1.03,2.24-1.34.86-.31,1.77-.47,2.74-.47.74,0,1.53.13,2.35.38.82.25,1.54.69,2.14,1.31l-2.57,2.7Z"/>
        <path class="cls-1" d="M162.01,12.58h3.9v12.01l4.32-4.99h4.78l-5.02,5.69,5.15,6.94h-4.91l-4.26-6.4h-.05v6.4h-3.9V12.58Z"/>
      </g>
    </g>
  </g>
</svg>